<?xml version="1.0"?>
<svg width="225" height="225" xmlns="http://www.w3.org/2000/svg" xmlns:svg="http://www.w3.org/2000/svg">
 <!-- Created with SVG-edit - https://github.com/SVG-Edit/svgedit-->

 <g class="layer" display="inline">
  <title>Layer 2</title>
  <circle cx="112.69278" cy="112.69278" fill="#FFFFFF" fill-opacity="0" id="svg_2" r="110.19278" stroke="#FFFFFF" stroke-width="5"/>
  <line fill="none" fill-opacity="0" id="svg_8" stroke="#FFFFFF" stroke-width="5" x1="7.11777" x2="25.61777" y1="141.96362" y2="141.96362"/>
  <line fill="none" fill-opacity="0" id="svg_9" stroke="#FFFFFF" stroke-width="5" x1="23.86777" x2="23.86777" y1="112.96362" y2="144.46362"/>
  <line fill="none" fill-opacity="0" id="svg_10" stroke="#FFFFFF" stroke-width="5" x1="40.61777" x2="40.61777" y1="143.21362" y2="79.21362"/>
  <line fill="none" fill-opacity="0" id="svg_11" stroke="#FFFFFF" stroke-width="5" x1="40.61777" x2="23.36777" y1="77.96362" y2="114.46362"/>
  <line fill="none" fill-opacity="0" id="svg_12" stroke="#FFFFFF" stroke-width="5" x1="38.11777" x2="52.61777" y1="142.21362" y2="142.21362"/>
  <line fill="none" fill-opacity="0" id="svg_13" stroke="#FFFFFF" stroke-width="5" x1="51.11777" x2="50.61777" y1="144.88024" y2="47.38025"/>
  <line fill="none" fill-opacity="0" id="svg_14" stroke="#FFFFFF" stroke-width="5" x1="49.86777" x2="68.61777" y1="49.88025" y2="49.88025"/>
  <line fill="none" fill-opacity="0" id="svg_18" stroke="#FFFFFF" stroke-width="5" x1="68.11777" x2="67.86777" y1="110.38025" y2="47.38025"/>
  <line fill="none" fill-opacity="0" id="svg_19" stroke="#FFFFFF" stroke-width="5" x1="79.61777" x2="65.61777" y1="109.63025" y2="109.88025"/>
  <line fill="none" fill-opacity="0" id="svg_20" stroke="#FFFFFF" stroke-width="5" x1="77.86777" x2="78.11777" y1="142.88025" y2="107.13025"/>
  <line fill="none" fill-opacity="0" id="svg_22" stroke="#FFFFFF" stroke-width="5" x1="88.36777" x2="75.36777" y1="141.88025" y2="141.88025"/>
  <line fill="none" fill-opacity="0" id="svg_23" stroke="#FFFFFF" stroke-width="5" x1="87.61777" x2="87.61777" y1="76.38025" y2="144.38025"/>
  <line fill="none" fill-opacity="0" id="svg_24" stroke="#FFFFFF" stroke-width="5" x1="114.61777" x2="84.86777" y1="76.38025" y2="76.63025"/>
  <line fill="none" fill-opacity="0" id="svg_25" stroke="#FFFFFF" stroke-width="5" x1="113.61777" x2="113.61777" y1="144.63025" y2="73.88025"/>
  <line fill="none" fill-opacity="0" id="svg_29" stroke="#FFFFFF" stroke-width="5" x1="112.86777" x2="128.61777" y1="142.13025" y2="142.13025"/>
  <line fill="none" fill-opacity="0" id="svg_30" stroke="#FFFFFF" stroke-width="5" x1="125.86777" x2="125.86777" y1="31.88025" y2="143.38025"/>
  <line fill="none" fill-opacity="0" id="svg_31" stroke="#FFFFFF" stroke-width="5" x1="144.36777" x2="125.11777" y1="53.38025" y2="30.63025"/>
  <line fill="none" fill-opacity="0" id="svg_32" stroke="#FFFFFF" stroke-width="5" x1="143.36777" x2="143.61777" y1="104.88025" y2="51.38025"/>
  <line fill="none" fill-opacity="0" id="svg_33" stroke="#FFFFFF" stroke-width="5" x1="158.11777" x2="140.61777" y1="104.38025" y2="104.38025"/>
  <line fill="none" fill-opacity="0" id="svg_34" stroke="#FFFFFF" stroke-width="5" x1="157.11777" x2="157.36777" y1="118.88025" y2="101.88025"/>
  <line fill="none" fill-opacity="0" id="svg_35" stroke="#FFFFFF" stroke-width="5" x1="177.11777" x2="154.61777" y1="116.63025" y2="116.63025"/>
  <line fill="none" fill-opacity="0" id="svg_36" stroke="#FFFFFF" stroke-width="5" x1="176.11777" x2="176.11777" y1="143.88025" y2="114.13025"/>
  <line fill="none" fill-opacity="0" id="svg_37" stroke="#FFFFFF" stroke-width="5" x1="189.36777" x2="173.61777" y1="141.88025" y2="141.63025"/>
  <line fill="none" fill-opacity="0" id="svg_38" stroke="#FFFFFF" stroke-width="5" x1="187.36777" x2="187.11777" y1="63.38025" y2="144.38025"/>
  <line fill="none" fill-opacity="0" id="svg_39" stroke="#FFFFFF" stroke-width="5" x1="202.36777" x2="186.61777" y1="82.63025" y2="62.38025"/>
  <line fill="none" fill-opacity="0" id="svg_40" stroke="#FFFFFF" stroke-width="5" x1="201.61777" x2="201.61777" y1="143.38025" y2="80.88025"/>
  <line fill="none" fill-opacity="0" id="svg_41" stroke="#FFFFFF" stroke-width="5" x1="217.86777" x2="199.11777" y1="141.88025" y2="141.88025"/>

  <text fill="#FFFFFF" font-family="Helvetica" font-size="32" id="svg_49" stroke="#FFFFFF" stroke-width="0" text-anchor="middle" x="112.5" xml:space="preserve" y="188.66666">NANTES</text>
 </g>
</svg>